<?xml version="1.0" encoding="UTF-8" standalone="no"?>
<svg width="171px" height="36px" viewBox="0 0 171 36" version="1.1" xmlns="http://www.w3.org/2000/svg" xmlns:xlink="http://www.w3.org/1999/xlink" xmlns:sketch="http://www.bohemiancoding.com/sketch/ns">
    <!-- Generator: Sketch 3.3 (11970) - http://www.bohemiancoding.com/sketch -->
    <title>Health-Harmony-Standard-White-rbg</title>
    <desc>Created with Sketch.</desc>
    <defs>
        <path id="path-1" d="M0.0127137546,0.0440743494 L170.9911,0.0440743494 L170.9911,35.1747212 L0.0127137546,35.1747212"></path>
    </defs>
    <g id="Page-1" stroke="none" stroke-width="1" fill="none" fill-rule="evenodd" sketch:type="MSPage">
        <g id="Health-Harmony-Standard-White-rbg" sketch:type="MSLayerGroup">
            <path d="M25.5531636,6.17401115 L25.5531636,25.5372714 L21.9375836,25.5372714 L21.9375836,17.0741487 L12.8451301,17.0741487 L12.8451301,25.5372714 L9.22933829,25.5372714 L9.22933829,6.17401115 L12.8451301,6.17401115 L12.8451301,14.5030037 L21.9375836,14.5030037 L21.9375836,6.17401115 L25.5531636,6.17401115" id="Fill-1" fill="#FFFFFF" sketch:type="MSShapeGroup"></path>
            <path d="M36.708,17.08771 C36.708,16.6590446 36.6478216,16.2549591 36.5270409,15.8754535 C36.406684,15.4963717 36.2259368,15.1639071 35.9847993,14.8780595 C35.7438736,14.5926357 35.4378959,14.3671784 35.0677138,14.2018996 C34.6971078,14.0366208 34.2663234,13.9541933 33.7751487,13.9541933 C32.8199219,13.9541933 32.0679033,14.2264796 31.518881,14.7708401 C30.9698587,15.3156245 30.6193829,16.0877732 30.4678773,17.08771 L36.708,17.08771 L36.708,17.08771 Z M30.4007063,19.08271 C30.454316,19.7883234 30.5793346,20.3975242 30.7757621,20.910948 C30.9721896,21.4241599 31.2309145,21.8479517 31.5523606,22.1827472 C31.8738067,22.5177546 32.2554312,22.7675799 32.6974461,22.9328587 C33.1392491,23.0981375 33.6280929,23.1803532 34.1635539,23.1803532 C34.6994387,23.1803532 35.1613717,23.1180558 35.5495651,22.9930372 C35.9379703,22.8682305 36.2772156,22.7296506 36.5673011,22.5779331 C36.8573866,22.4262156 37.1116617,22.2878476 37.3307621,22.162829 C37.5492268,22.0380223 37.7611227,21.975513 37.9666617,21.975513 C38.2433978,21.975513 38.4489368,22.0780706 38.5826431,22.2833978 L39.5334201,23.4882379 C39.1672639,23.9169033 38.7568216,24.2764907 38.3014572,24.5663643 C37.8463048,24.8566617 37.3708104,25.0886877 36.8753978,25.2628662 C36.3797732,25.4366208 35.875461,25.5593086 35.3620372,25.6309294 C34.8486134,25.7025502 34.3510818,25.7381487 33.8690186,25.7381487 C32.9137918,25.7381487 32.0255242,25.5794387 31.2042156,25.2628662 C30.3826952,24.9458699 29.6686059,24.4771561 29.0617361,23.8567249 C28.4544424,23.2362937 27.976829,22.4685948 27.6288959,21.5534164 C27.280539,20.6384498 27.1065725,19.5783346 27.1065725,18.3730706 C27.1065725,17.435855 27.25829,16.554368 27.5617249,15.7281859 C27.8653717,14.9026394 28.3003941,14.1838885 28.8674275,13.5725688 C29.4342491,12.9610372 30.1263011,12.4764312 30.942948,12.1193866 C31.7600186,11.762342 32.6815539,11.5837138 33.7084015,11.5837138 C34.5742082,11.5837138 35.3732677,11.7222937 36.105368,11.9988178 C36.8372565,12.2755539 37.4667993,12.6796394 37.9935725,13.2110743 C38.5201338,13.7422974 38.9329071,14.3936654 39.2321041,15.166026 C39.5313011,15.9381747 39.6806877,16.8198736 39.6806877,17.8106989 C39.6806877,18.3105613 39.6270781,18.6476877 39.5200706,18.8218662 C39.4128513,18.9956208 39.2075242,19.08271 38.9040892,19.08271 L30.4007063,19.08271 L30.4007063,19.08271 Z" id="Fill-2" fill="#FFFFFF" sketch:type="MSShapeGroup"></path>
            <path d="M47.273342,19.6719926 C46.3179033,19.7167026 45.5143941,19.799342 44.863026,19.9199108 C44.2110223,20.0402677 43.6886989,20.194316 43.2960558,20.381632 C42.9032007,20.5693717 42.6220149,20.7882602 42.4524981,21.0380855 C42.2829814,21.2879108 42.1980112,21.5604089 42.1980112,21.8547323 C42.1980112,22.4351152 42.3698587,22.8502193 42.7135539,23.1002565 C43.0570372,23.3500818 43.5058327,23.4751004 44.0595167,23.4751004 C44.7377955,23.4751004 45.3249591,23.3524126 45.8203717,23.1066134 C46.3157844,22.8612379 46.7999665,22.4887249 47.273342,21.9886506 L47.273342,19.6719926 L47.273342,19.6719926 Z M39.6940372,13.7128439 C41.274145,12.2666543 43.1756989,11.5436654 45.398487,11.5436654 C46.2019963,11.5436654 46.9205353,11.6756766 47.5545279,11.9386394 C48.1880967,12.202026 48.7239814,12.5679703 49.1613346,13.036684 C49.5986877,13.5053978 49.9313643,14.0658625 50.1589405,14.7172305 C50.3867286,15.3692342 50.5005167,16.0833234 50.5005167,16.8599219 L50.5005167,25.5372714 L49.0005056,25.5372714 C48.688171,25.5372714 48.4470335,25.4902305 48.2775167,25.3965725 C48.1077881,25.3029145 47.9740818,25.1132677 47.875974,24.827632 L47.5812268,23.8368067 C47.2330818,24.1491413 46.8936245,24.4235465 46.5634907,24.6600223 C46.233145,24.8969219 45.8892379,25.0956803 45.5324052,25.2558736 C45.1751487,25.4167026 44.7935242,25.5393903 44.3875316,25.6243606 C43.9811152,25.709119 43.5325316,25.7514981 43.0417807,25.7514981 C42.4611859,25.7514981 41.9257249,25.6735204 41.4347621,25.5171413 C40.9435874,25.360974 40.5195836,25.1266171 40.162539,24.8142825 C39.8054944,24.5017361 39.5285465,24.1135428 39.3323309,23.6490669 C39.1359033,23.1852268 39.0377955,22.6448922 39.0377955,22.0291227 C39.0377955,21.6805539 39.0956431,21.3349517 39.2117621,20.9910446 C39.327881,20.6475613 39.5175279,20.3195465 39.7809145,20.0065762 C40.0440892,19.6946654 40.3856654,19.3997063 40.8054312,19.1227584 C41.2247732,18.8464461 41.740316,18.6055204 42.3520595,18.3997695 C42.9633792,18.1944424 43.6755613,18.0272565 44.4879703,17.8975762 C45.3001673,17.7683197 46.2286952,17.6901301 47.273342,17.6632193 L47.273342,16.8599219 C47.273342,15.9405056 47.0767026,15.259684 46.6840595,14.817881 C46.2909926,14.3758662 45.724171,14.1548587 44.9833829,14.1548587 C44.4479219,14.1548587 44.0033643,14.2175799 43.6509814,14.3421747 C43.2981747,14.4674052 42.988171,14.6081041 42.7203346,14.7642714 C42.4524981,14.9204387 42.2090297,15.0611375 41.9903532,15.1859442 C41.7716766,15.3111747 41.5284201,15.373684 41.2605836,15.373684 C41.0283457,15.373684 40.8321301,15.3130818 40.671513,15.1929368 C40.510684,15.072368 40.3812156,14.9316691 40.2831078,14.7708401 L39.6940372,13.7128439 L39.6940372,13.7128439 Z" id="Fill-3" fill="#FFFFFF" sketch:type="MSShapeGroup"></path>
            <path d="M52.0403643,5.63833829 L55.3478476,5.63833829 L55.3478476,25.5372714 L52.0403643,25.5372714 L52.0403643,5.63833829 Z" id="Fill-4" fill="#FFFFFF" sketch:type="MSShapeGroup"></path>
            <path d="M61.0923457,25.7514981 C59.8957695,25.7514981 58.978684,25.4145836 58.3404535,24.7405428 C57.7020112,24.0665019 57.3831078,23.1356431 57.3831078,21.9483903 L57.3831078,14.2756394 L55.9769665,14.2756394 C55.7983383,14.2756394 55.6466208,14.2175799 55.5216022,14.1012491 C55.3963717,13.9855539 55.3340743,13.8113755 55.3340743,13.5791375 L55.3340743,12.2666543 L57.543513,11.9051599 L58.2400149,8.15566171 C58.2847249,7.97724535 58.3692714,7.83908922 58.4945019,7.74055762 C58.6195204,7.64223792 58.7801375,7.59328996 58.9765651,7.59328996 L60.6905911,7.59328996 L60.6905911,11.9185093 L64.3597807,11.9185093 L64.3597807,14.2756394 L60.6905911,14.2756394 L60.6905911,21.7206022 C60.6905911,22.1492677 60.7954796,22.4842751 61.0052565,22.7252007 C61.2150335,22.9659145 61.5027881,23.0866952 61.8689442,23.0866952 C62.0742714,23.0866952 62.246119,23.0621152 62.384487,23.0129554 C62.522855,22.9640074 62.6434238,22.9125167 62.7459814,22.8593309 C62.8487509,22.8057212 62.94029,22.7542305 63.0205985,22.7050706 C63.101119,22.6559108 63.1814275,22.6315428 63.2615242,22.6315428 C63.359632,22.6315428 63.4401524,22.6559108 63.5026617,22.7050706 C63.5649591,22.7542305 63.6319182,22.8277584 63.703539,22.9258662 L64.6943643,24.5328848 C64.212513,24.9348513 63.6586171,25.2382862 63.033948,25.4436134 C62.4090669,25.6489405 61.7619368,25.7514981 61.0923457,25.7514981" id="Fill-5" fill="#FFFFFF" sketch:type="MSShapeGroup"></path>
            <path d="M68.176026,13.2710409 C68.7116989,12.7713903 69.3009814,12.3651859 69.9436617,12.0524275 C70.586342,11.7403048 71.3406914,11.5837138 72.20671,11.5837138 C72.9566097,11.5837138 73.6217509,11.7112751 74.2019219,11.9655502 C74.7820929,12.2200372 75.2666989,12.5770818 75.6548922,13.036684 C76.0432974,13.4969219 76.3378327,14.0457323 76.53871,14.6837509 C76.7395874,15.3221933 76.840026,16.0252639 76.840026,16.7929628 L76.840026,25.5372714 L73.5325428,25.5372714 L73.5325428,16.7929628 C73.5325428,15.9540669 73.3403532,15.3046059 72.9566097,14.8445799 C72.5726543,14.3847658 71.9878216,14.1548587 71.2023234,14.1548587 C70.631052,14.1548587 70.0953792,14.284539 69.5955167,14.5434758 C69.0954424,14.8024126 68.6222788,15.1547955 68.176026,15.6010483 L68.176026,25.5372714 L64.8685428,25.5372714 L64.8685428,5.63833829 L68.176026,5.63833829 L68.176026,13.2710409" id="Fill-6" fill="#FFFFFF" sketch:type="MSShapeGroup"></path>
            <path d="M93.6192156,6.58911524 L93.6192156,25.5372714 L92.2393494,25.5372714 L92.2393494,16.4583792 L80.3752974,16.4583792 L80.3752974,25.5372714 L78.9956431,25.5372714 L78.9956431,6.58911524 L80.3752974,6.58911524 L80.3752974,15.4272937 L92.2393494,15.4272937 L92.2393494,6.58911524 L93.6192156,6.58911524" id="Fill-7" fill="#FFFFFF" sketch:type="MSShapeGroup"></path>
            <path d="M103.394186,19.0962714 C102.126413,19.1407695 101.035361,19.2414201 100.120394,19.3975874 C99.2050037,19.5539665 98.4508662,19.7656506 97.8571338,20.0336989 C97.2631896,20.3015353 96.8235056,20.6204387 96.5380818,20.9910446 C96.2522342,21.3616506 96.1094164,21.7833234 96.1094164,22.256487 C96.1094164,22.7029517 96.1831561,23.089026 96.3308476,23.41471 C96.4779033,23.7406059 96.6743309,24.0084424 96.9197063,24.2182193 C97.1650818,24.4282082 97.4490223,24.5822565 97.7700446,24.6801524 C98.0914907,24.778684 98.4262862,24.827632 98.7744312,24.827632 C99.2923048,24.827632 99.7673755,24.7721152 100.200491,24.6600223 C100.633606,24.548777 101.035361,24.3926097 101.405755,24.1913086 C101.776361,23.9904312 102.122387,23.7520483 102.443833,23.4751004 C102.764855,23.1983643 103.081851,22.8993792 103.394186,22.5779331 L103.394186,19.0962714 L103.394186,19.0962714 Z M95.5606059,14.1012491 C96.2571078,13.4047472 96.9887844,12.8783978 97.7569071,12.5211413 C98.5246059,12.1645204 99.3948625,11.9856803 100.367888,11.9856803 C101.082401,11.9856803 101.707283,12.0994684 102.242532,12.3272565 C102.778416,12.5546208 103.22255,12.8805167 103.575145,13.3047323 C103.927528,13.7287361 104.193457,14.241948 104.371662,14.8445799 C104.550502,15.4472119 104.63971,16.1189219 104.63971,16.8599219 L104.63971,25.5372714 L104.130948,25.5372714 C103.8629,25.5372714 103.697833,25.4124647 103.635535,25.1622156 L103.447796,23.4481896 C103.081851,23.8052342 102.718238,24.1266803 102.356743,24.4125279 C101.995249,24.6979517 101.617651,24.9393011 101.225007,25.1357286 C100.831941,25.3319442 100.408361,25.4836617 99.9527844,25.590881 C99.4974201,25.6981004 98.9973457,25.7514981 98.4529851,25.7514981 C97.9978327,25.7514981 97.5560297,25.684539 97.1273643,25.5508327 C96.6989108,25.4167026 96.3172862,25.2113755 95.9822788,24.9348513 C95.6476952,24.6579033 95.3798587,24.3034015 95.1789814,23.8702862 C94.978316,23.437171 94.8776654,22.9173903 94.8776654,22.3100967 C94.8776654,21.7477249 95.0382825,21.2254015 95.3599405,20.7431264 C95.6813866,20.261487 96.185487,19.8417212 96.8730892,19.4842528 C97.5602677,19.127632 98.4419665,18.8417844 99.5175502,18.6275576 C100.593134,18.4133309 101.885487,18.2885242 103.394186,18.2525019 L103.394186,16.8599219 C103.394186,15.628171 103.128892,14.6797249 102.597669,14.0141599 C102.066234,13.3492305 101.278617,13.0167658 100.234182,13.0167658 C99.5910781,13.0167658 99.0443866,13.105974 98.593684,13.2846022 C98.1429814,13.4632305 97.7609331,13.659658 97.4490223,13.873461 C97.136052,14.0878996 96.8815651,14.284539 96.6853494,14.4629554 C96.4891338,14.6415836 96.323855,14.7307918 96.1901487,14.7307918 C96.0914052,14.7307918 96.0113086,14.7087546 95.9487993,14.6636208 C95.8867138,14.6191227 95.8331041,14.561487 95.7883941,14.4898662 L95.5606059,14.1012491 L95.5606059,14.1012491 Z" id="Fill-8" fill="#FFFFFF" sketch:type="MSShapeGroup"></path>
            <path d="M107.97368,15.4272937 C108.179007,14.8825093 108.413364,14.3983271 108.676751,13.9741115 C108.940138,13.5501078 109.243572,13.1909442 109.58748,12.8959851 C109.930963,12.6016617 110.31513,12.3762045 110.739134,12.2200372 C111.162926,12.0638699 111.63397,11.9856803 112.151844,11.9856803 C112.428368,11.9856803 112.700654,12.0102602 112.968491,12.0592082 C113.236327,12.108368 113.472803,12.1954572 113.678554,12.3202639 L113.571335,13.2040818 C113.526413,13.3471115 113.441654,13.4183086 113.317059,13.4183086 C113.20984,13.4183086 113.04668,13.3871599 112.827792,13.3246506 C112.609115,13.2625651 112.321149,13.2309926 111.964528,13.2309926 C111.44623,13.2309926 110.988747,13.3091822 110.591442,13.4653494 C110.194349,13.6217286 109.837305,13.8558736 109.520309,14.1684201 C109.203524,14.4809665 108.926576,14.8670409 108.6901,15.3266431 C108.453413,15.7864572 108.237067,16.3155613 108.040639,16.9135316 L108.040639,25.5372714 L106.755279,25.5372714 L106.755279,12.2130446 L107.438219,12.2130446 C107.589937,12.2130446 107.696732,12.2446171 107.759242,12.3071264 C107.821963,12.3696357 107.862011,12.4764312 107.880022,12.6281487 L107.97368,15.4272937" id="Fill-9" fill="#FFFFFF" sketch:type="MSShapeGroup"></path>
            <path d="M114.615558,25.5372714 L114.615558,12.2130446 L115.324985,12.2130446 C115.5479,12.2130446 115.67758,12.3251375 115.713602,12.548052 L115.833747,14.4763048 C116.351621,13.7353048 116.945565,13.1373346 117.614944,12.6817584 C118.284535,12.2266059 119.038673,11.9988178 119.877781,11.9988178 C120.850807,11.9988178 121.629948,12.2802156 122.214781,12.8425874 C122.79919,13.4047472 123.194375,14.1864312 123.399914,15.1859442 C123.560743,14.6415836 123.785989,14.1684201 124.076074,13.7664535 C124.365948,13.3646989 124.698836,13.0322342 125.073892,12.7688476 C125.448524,12.5058848 125.857271,12.3115762 126.298862,12.1865576 C126.740877,12.0613271 127.194123,11.9988178 127.658387,11.9988178 C128.318866,11.9988178 128.912175,12.108368 129.439372,12.3272565 C129.965721,12.5459331 130.411974,12.8694981 130.778342,13.2977398 C131.144498,13.7264052 131.425472,14.2531784 131.622112,14.8780595 C131.818115,15.5029405 131.916647,16.2170297 131.916647,17.0207509 L131.916647,25.5372714 L130.644212,25.5372714 L130.644212,17.0207509 C130.644212,15.7171673 130.363238,14.724223 129.801078,14.0412825 C129.238283,13.358342 128.434985,13.0167658 127.390338,13.0167658 C126.926286,13.0167658 126.482152,13.1017361 126.057937,13.2710409 C125.633933,13.4407695 125.258877,13.6927138 124.933193,14.0277212 C124.607297,14.3627286 124.348361,14.7797398 124.156595,15.2796022 C123.964405,15.7798885 123.868628,16.3600595 123.868628,17.0207509 L123.868628,25.5372714 L122.582844,25.5372714 L122.582844,17.0207509 C122.582844,15.7262788 122.32645,14.7352416 121.813238,14.0478513 C121.29939,13.3602491 120.547796,13.0167658 119.556758,13.0167658 C118.83377,13.0167658 118.163755,13.2309926 117.547985,13.659658 C116.932004,14.0878996 116.383193,14.681632 115.900918,15.4404312 L115.900918,25.5372714 L114.615558,25.5372714" id="Fill-10" fill="#FFFFFF" sketch:type="MSShapeGroup"></path>
            <path d="M139.843461,24.7070632 C140.638071,24.7070632 141.332242,24.5708141 141.925974,24.2985279 C142.519494,24.0264535 143.015119,23.6359294 143.412212,23.1267435 C143.809305,22.6179814 144.106383,22.0045428 144.302599,21.2855799 C144.499026,20.5670409 144.597558,19.7612007 144.597558,18.8684833 C144.597558,17.9846654 144.499026,17.181368 144.302599,16.4583792 C144.106383,15.7351784 143.809305,15.1168662 143.412212,14.6036543 C143.015119,14.0902305 142.519494,13.6952565 141.925974,13.4183086 C141.332242,13.1417844 140.638071,13.0032045 139.843461,13.0032045 C139.048851,13.0032045 138.354892,13.1417844 137.761372,13.4183086 C137.167639,13.6952565 136.671803,14.0902305 136.27471,14.6036543 C135.877617,15.1168662 135.578632,15.7351784 135.377755,16.4583792 C135.177089,17.181368 135.076439,17.9846654 135.076439,18.8684833 C135.076439,19.7612007 135.177089,20.5670409 135.377755,21.2855799 C135.578632,22.0045428 135.877617,22.6179814 136.27471,23.1267435 C136.671803,23.6359294 137.167639,24.0264535 137.761372,24.2985279 C138.354892,24.5708141 139.048851,24.7070632 139.843461,24.7070632 L139.843461,24.7070632 Z M139.843461,11.9988178 C140.7989,11.9988178 141.653688,12.1619777 142.407825,12.4878736 C143.162387,12.8137695 143.798286,13.2757026 144.31616,13.873461 C144.833822,14.471855 145.229007,15.1929368 145.501294,16.0362825 C145.773368,16.880052 145.909829,17.8238364 145.909829,18.8684833 C145.909829,19.9129182 145.773368,20.8547955 145.501294,21.6941152 C145.229007,22.533223 144.833822,23.251974 144.31616,23.8497323 C143.798286,24.4481264 143.162387,24.9079405 142.407825,25.2293866 C141.653688,25.5508327 140.7989,25.7114498 139.843461,25.7114498 C138.888022,25.7114498 138.033446,25.5508327 137.279097,25.2293866 C136.524535,24.9079405 135.886517,24.4481264 135.364405,23.8497323 C134.842082,23.251974 134.444565,22.533223 134.172491,21.6941152 C133.900204,20.8547955 133.763955,19.9129182 133.763955,18.8684833 C133.763955,17.8238364 133.900204,16.880052 134.172491,16.0362825 C134.444565,15.1929368 134.842082,14.471855 135.364405,13.873461 C135.886517,13.2757026 136.524535,12.8137695 137.279097,12.4878736 C138.033446,12.1619777 138.888022,11.9988178 139.843461,11.9988178 L139.843461,11.9988178 Z" id="Fill-11" fill="#FFFFFF" sketch:type="MSShapeGroup"></path>
            <path d="M148.587981,14.5434758 C149.203963,13.7753532 149.915933,13.1593717 150.724104,12.6953197 C151.531851,12.2310558 152.431138,11.9988178 153.422175,11.9988178 C154.154275,11.9988178 154.799074,12.1149368 155.35742,12.3471747 C155.914918,12.5796245 156.377063,12.9139963 156.743007,13.3513494 C157.109164,13.7889145 157.3859,14.3156877 157.573216,14.9316691 C157.760955,15.5474387 157.854613,16.2439405 157.854613,17.0207509 L157.854613,25.5372714 L156.569253,25.5372714 L156.569253,17.0207509 C156.569253,15.770777 156.283405,14.7909703 155.711922,14.0813309 C155.140651,13.3716914 154.270394,13.0167658 153.100729,13.0167658 C152.234922,13.0167658 151.424632,13.2375613 150.670494,13.6797881 C149.915933,14.1213792 149.244435,14.7352416 148.654941,15.5209517 L148.654941,25.5372714 L147.36958,25.5372714 L147.36958,12.2130446 L148.079219,12.2130446 C148.302134,12.2130446 148.431602,12.3251375 148.467625,12.548052 L148.587981,14.5434758" id="Fill-12" fill="#FFFFFF" sketch:type="MSShapeGroup"></path>
            <g id="Group-16">
                <mask id="mask-2" sketch:name="Clip 14" fill="white">
                    <use xlink:href="#path-1"></use>
                </mask>
                <g id="Clip-14"></g>
                <path d="M170.9911,12.2130446 L163.331275,29.8226543 C163.277665,29.9472491 163.208587,30.0500186 163.123617,30.130539 C163.038859,30.2106357 162.916171,30.2508959 162.755342,30.2508959 L161.845037,30.2508959 L164.188182,25.0420706 L158.550691,12.2130446 L159.608688,12.2130446 C159.742394,12.2130446 159.849613,12.2467361 159.92971,12.3136952 C160.010442,12.3806543 160.064052,12.4543941 160.090539,12.5344907 L164.576587,22.8993792 C164.630197,23.0330855 164.677238,23.1693346 164.717286,23.3074907 C164.757335,23.4460706 164.795476,23.5867695 164.831074,23.7295874 C164.875572,23.5867695 164.922613,23.4460706 164.971773,23.3074907 C165.020721,23.1693346 165.072,23.0330855 165.125398,22.8993792 L169.558048,12.5344907 C169.602546,12.4363829 169.665268,12.3581933 169.745788,12.3001338 C169.825885,12.2420743 169.915093,12.2130446 170.013201,12.2130446 L170.9911,12.2130446" id="Fill-13" fill="#FFFFFF" sketch:type="MSShapeGroup" mask="url(#mask-2)"></path>
                <path d="M12.2361413,4.93696283 C12.2098662,4.94522677 12.1865576,4.94819331 12.1596468,4.94819331 C12.0469182,4.94819331 11.9411822,4.87254647 11.9074907,4.75769888 C11.194461,2.29313755 8.90111152,0.572330855 6.33378067,0.572330855 C3.13160967,0.572330855 0.529104089,3.17568401 0.529104089,6.37637175 C0.529104089,9.0524052 2.35119703,11.3129108 4.82084387,11.9805948 L4.82169145,11.9805948 C5.49636803,12.0956543 5.58854275,11.8042974 5.58854275,11.4599665 L5.58854275,7.27099628 C5.58854275,6.75905576 5.56375093,6.48147212 6.29712268,6.48147212 C7.00549071,6.48147212 6.95739033,6.75905576 6.95739033,7.27099628 L6.95739033,12.0130149 C6.95739033,12.4738885 6.73595911,12.5967881 6.56347584,12.6472193 C6.4515948,12.6794275 6.17994424,12.6876914 5.92715242,12.6726468 C5.67181784,12.6576022 5.43322305,12.627513 5.40843123,12.6245465 C2.32555762,12.2149517 0,9.58299257 0,6.37637175 C0,2.88538662 2.84131227,0.0440743494 6.33378067,0.0440743494 C7.73568401,0.0440743494 9.06172862,0.513211896 10.1341338,1.31841636 C11.2071747,2.12362082 12.0274238,3.26510409 12.4168885,4.61064312 C12.4575725,4.75091822 12.3764164,4.89649071 12.2361413,4.93696283" id="Fill-15" fill="#FFFFFF" sketch:type="MSShapeGroup" mask="url(#mask-2)"></path>
            </g>
            <path d="M7.21442007,4.3163197 C7.21442007,4.83631227 6.79253532,5.25734944 6.27254275,5.25734944 C5.75255019,5.25734944 5.33151301,4.83631227 5.33151301,4.3163197 C5.33151301,3.79632714 5.75255019,3.37444238 6.27254275,3.37444238 C6.79253532,3.37444238 7.21442007,3.79632714 7.21442007,4.3163197" id="Fill-17" fill="#FFFFFF" sketch:type="MSShapeGroup"></path>
            <path d="M58.0579963,33.2515539 L58.0579963,34.6858773 L59.0083494,34.6858773 C59.1778662,34.6858773 59.3234387,34.6678662 59.4450669,34.6314201 C59.5666952,34.5951859 59.66671,34.5436952 59.7453234,34.4775836 C59.8239368,34.4114721 59.8817844,34.3330706 59.9184424,34.2419554 C59.9553123,34.1508401 59.9737472,34.0506134 59.9737472,33.941487 C59.9737472,33.7289554 59.8934387,33.56071 59.7330335,33.4369628 C59.5728401,33.3134275 59.3300074,33.2515539 59.005171,33.2515539 L58.0579963,33.2515539 L58.0579963,33.2515539 Z M58.0579963,32.8548848 L58.8426468,32.8548848 C59.0102565,32.8548848 59.1554052,32.8375093 59.277881,32.8031822 C59.4005688,32.7686431 59.5020669,32.7207546 59.5830112,32.6595167 C59.6635316,32.5980669 59.7234981,32.5239033 59.7622751,32.4366022 C59.801052,32.349513 59.8205465,32.2541599 59.8205465,32.1507546 C59.8205465,31.9091933 59.7427807,31.7318364 59.587461,31.6188959 C59.4321413,31.5057435 59.1910037,31.4491673 58.8640483,31.4491673 L58.0579963,31.4491673 L58.0579963,32.8548848 L58.0579963,32.8548848 Z M57.4634164,35.1287398 L57.4634164,31.0094833 L58.8640483,31.0094833 C59.1337918,31.0094833 59.3664535,31.0342751 59.5613978,31.0840706 C59.7565539,31.1338662 59.9169591,31.2048513 60.0426134,31.297026 C60.1684796,31.3889888 60.26129,31.5012937 60.3216803,31.6345762 C60.3818587,31.7678587 60.4121599,31.917881 60.4121599,32.0844312 C60.4121599,32.1861413 60.3952082,32.2838253 60.3615167,32.3776952 C60.3278253,32.471777 60.2767584,32.5588662 60.208316,32.6393866 C60.1396617,32.7196952 60.0538439,32.7915279 59.9506506,32.8548848 C59.8474572,32.9180297 59.7264647,32.9699442 59.587461,33.0099926 C59.9082714,33.0695353 60.1504684,33.1778141 60.314052,33.334829 C60.4774238,33.4920558 60.5592156,33.6990781 60.5592156,33.9558959 C60.5592156,34.1302862 60.5248885,34.2892082 60.4564461,34.4330855 C60.3880037,34.5767509 60.2879888,34.7004981 60.1561896,34.8039033 C60.0243903,34.9075204 59.8629257,34.9874052 59.6717955,35.0439814 C59.4808773,35.1003457 59.2626245,35.1287398 59.017461,35.1287398 L57.4634164,35.1287398 L57.4634164,35.1287398 Z" id="Fill-18" fill="#FFFFFF" sketch:type="MSShapeGroup"></path>
            <path d="M63.1456171,33.4901487 L63.1456171,35.1287398 L62.5540037,35.1287398 L62.5540037,33.4901487 L60.9446543,31.0094833 L61.4659182,31.0094833 C61.5188922,31.0094833 61.5608476,31.0219851 61.5915725,31.046777 C61.6220855,31.0717807 61.6487844,31.1025056 61.6712454,31.1387398 L62.6764796,32.7400372 C62.7173755,32.8072082 62.7517026,32.8703532 62.7792491,32.929684 C62.8067955,32.9890149 62.8317993,33.04771 62.8542602,33.1049219 C62.8767212,33.0455911 62.9013011,32.9862602 62.928,32.9267175 C62.954487,32.8673866 62.9881784,32.8050892 63.0290743,32.7400372 L64.031342,31.1387398 C64.049777,31.1080149 64.0747807,31.0789851 64.1065651,31.0510149 C64.1381375,31.0232565 64.1794572,31.0094833 64.2305242,31.0094833 L64.7579331,31.0094833 L63.1456171,33.4901487" id="Fill-19" fill="#FFFFFF" sketch:type="MSShapeGroup"></path>
            <path d="M67.0811599,31.0094833 L67.6757398,31.0094833 L67.6757398,35.1287398 L67.0811599,35.1287398 L67.0811599,31.0094833 Z" id="Fill-20" fill="#FFFFFF" sketch:type="MSShapeGroup"></path>
            <path d="M69.4122268,31.0279182 C69.4376543,31.0404201 69.466684,31.0660595 69.4995279,31.1042007 L72.0435502,34.2088996 C72.0374052,34.1591041 72.0333792,34.1107918 72.0312602,34.0637509 C72.0291413,34.01671 72.0282937,33.9713643 72.0282937,33.92729 L72.0282937,31.0094833 L72.5491338,31.0094833 L72.5491338,35.1287398 L72.2488773,35.1287398 C72.2018364,35.1287398 72.1624238,35.1211115 72.1308513,35.1056431 C72.0990669,35.0905985 72.0681301,35.0645353 72.0374052,35.0280892 L69.4963494,31.9263569 C69.5003755,31.9742454 69.5035539,32.0210743 69.5056729,32.0672677 C69.5075799,32.1132491 69.5086394,32.1554164 69.5086394,32.1935576 L69.5086394,35.1287398 L68.9875874,35.1287398 L68.9875874,31.0094833 L69.2939888,31.0094833 C69.3471747,31.0094833 69.3865874,31.0156283 69.4122268,31.0279182" id="Fill-21" fill="#FFFFFF" sketch:type="MSShapeGroup"></path>
            <path d="M76.7885353,31.0094833 L76.7885353,31.4779851 L75.3692565,31.4779851 L75.3692565,35.1287398 L74.7746766,35.1287398 L74.7746766,31.4779851 L73.3492528,31.4779851 L73.3492528,31.0094833 L76.7885353,31.0094833" id="Fill-22" fill="#FFFFFF" sketch:type="MSShapeGroup"></path>
            <path d="M80.2949888,31.0094833 L80.2949888,31.4635762 L78.1862007,31.4635762 L78.1862007,32.832 L79.8934461,32.832 L79.8934461,33.2689294 L78.1862007,33.2689294 L78.1862007,34.6746468 L80.2949888,34.6746468 L80.2949888,35.1287398 L77.5884424,35.1287398 L77.5884424,31.0094833 L80.2949888,31.0094833" id="Fill-23" fill="#FFFFFF" sketch:type="MSShapeGroup"></path>
            <path d="M81.8170372,34.660026 L83.7175316,34.660026 L83.7175316,35.1287398 L81.2224572,35.1287398 L81.2224572,31.0094833 L81.8170372,31.0094833 L81.8170372,34.660026" id="Fill-24" fill="#FFFFFF" sketch:type="MSShapeGroup"></path>
            <path d="M85.2921301,33.3032565 C85.2921301,33.2379926 85.3052677,33.1769665 85.3319665,33.1193309 C85.3584535,33.0619071 85.3942639,33.0116877 85.4393978,32.9693086 C85.4843197,32.9265056 85.5372937,32.8928141 85.5981078,32.8678104 C85.6589219,32.8430186 85.7235502,32.8305167 85.7922045,32.8305167 C85.8612825,32.8305167 85.9267584,32.8430186 85.9879963,32.8678104 C86.0492342,32.8928141 86.102632,32.9265056 86.1481896,32.9693086 C86.1935353,33.0116877 86.2297695,33.0619071 86.2562565,33.1193309 C86.2829554,33.1769665 86.2960929,33.2379926 86.2960929,33.3032565 C86.2960929,33.3680967 86.2829554,33.4291227 86.2562565,33.4861227 C86.2297695,33.5431227 86.1935353,33.5929182 86.1481896,33.6350855 C86.102632,33.6774647 86.0492342,33.7109442 85.9879963,33.735948 C85.9267584,33.7607398 85.8612825,33.7732416 85.7922045,33.7732416 C85.7235502,33.7732416 85.6589219,33.7607398 85.5981078,33.735948 C85.5372937,33.7109442 85.4843197,33.6774647 85.4393978,33.6350855 C85.3942639,33.5929182 85.3584535,33.5431227 85.3319665,33.4861227 C85.3052677,33.4291227 85.2921301,33.3680967 85.2921301,33.3032565" id="Fill-25" fill="#FFFFFF" sketch:type="MSShapeGroup"></path>
            <path d="M90.2136245,34.7233829 C90.3320743,34.7233829 90.440777,34.7180855 90.5401561,34.7074907 C90.6393234,34.6968959 90.7327695,34.6812156 90.8204944,34.660026 C90.9084312,34.6390483 90.9910706,34.6136208 91.0688364,34.5839554 C91.1466022,34.55429 91.2239442,34.5201747 91.30171,34.4820335 L91.30171,33.5736357 L90.6213123,33.5736357 C90.5825353,33.5736357 90.5511747,33.5630409 90.5278662,33.5418513 C90.5043457,33.5206617 90.4924796,33.4950223 90.4924796,33.4645093 L90.4924796,33.1481487 L91.841197,33.1481487 L91.841197,34.7291041 C91.7307993,34.8039033 91.6159517,34.8689554 91.4964424,34.924684 C91.3769331,34.9802007 91.2491599,35.0266059 91.1133346,35.0638996 C90.9772974,35.1014052 90.8317249,35.1291636 90.6764052,35.1475985 C90.5212974,35.1656097 90.3526283,35.1747212 90.1708216,35.1747212 C89.8519182,35.1747212 89.5597138,35.1234424 89.2942082,35.0208848 C89.0284907,34.918539 88.7996431,34.7746617 88.6074535,34.5896766 C88.4154758,34.4046914 88.2656654,34.1830483 88.1584461,33.9241115 C88.0512268,33.6655985 87.9976171,33.3808104 87.9976171,33.0703829 C87.9976171,32.7561413 88.0501673,32.469658 88.1552677,32.2109331 C88.2605799,31.9524201 88.4108141,31.7303532 88.6059703,31.5455799 C88.8011264,31.3605948 89.0371784,31.2173532 89.3139145,31.115855 C89.5908625,31.014145 89.9010781,30.9635019 90.2443494,30.9635019 C90.4181041,30.9635019 90.5793569,30.975368 90.7285316,30.9993123 C90.8777063,31.0232565 91.0160743,31.0577955 91.1438476,31.1029294 C91.2716208,31.1478513 91.3896468,31.2023086 91.4979257,31.2667249 C91.6062045,31.3309294 91.7072788,31.4031859 91.8013606,31.4837063 L91.6329033,31.73671 C91.5981524,31.7884126 91.5532305,31.8144758 91.4979257,31.8144758 C91.4650818,31.8144758 91.4294833,31.803881 91.3907063,31.7826914 C91.3396394,31.7557807 91.2824275,31.7233606 91.2190706,31.6847955 C91.1555019,31.6466543 91.0785836,31.6097844 90.9876803,31.5743978 C90.8965651,31.5390112 90.7893457,31.50871 90.6658104,31.4837063 C90.5420632,31.4589145 90.3956431,31.4464126 90.2259145,31.4464126 C89.978632,31.4464126 89.7548699,31.4841301 89.5546283,31.559777 C89.3543866,31.6356357 89.1835985,31.7437026 89.0426877,31.8848253 C88.901777,32.0255242 88.7934981,32.1963123 88.7178513,32.396342 C88.6422045,32.5965836 88.604487,32.8214052 88.604487,33.0703829 C88.604487,33.3312268 88.6436877,33.5634647 88.722513,33.7675204 C88.8011264,33.9715762 88.911948,34.1446952 89.0549777,34.2864535 C89.1980074,34.4282119 89.3675242,34.5364907 89.5637398,34.61129 C89.7599554,34.6858773 89.976513,34.7233829 90.2136245,34.7233829" id="Fill-26" fill="#FFFFFF" sketch:type="MSShapeGroup"></path>
            <path d="M95.6818104,31.0094833 L95.6818104,31.4635762 L93.5730223,31.4635762 L93.5730223,32.832 L95.2802677,32.832 L95.2802677,33.2689294 L93.5730223,33.2689294 L93.5730223,34.6746468 L95.6818104,34.6746468 L95.6818104,35.1287398 L92.9752639,35.1287398 L92.9752639,31.0094833 L95.6818104,31.0094833" id="Fill-27" fill="#FFFFFF" sketch:type="MSShapeGroup"></path>
            <path d="M101.294086,34.2777658 C101.326929,34.2777658 101.356383,34.2902677 101.383082,34.3150595 L101.615955,34.5538662 C101.436056,34.7492342 101.218015,34.9015874 100.961621,35.0109257 C100.705227,35.120052 100.396071,35.1747212 100.034364,35.1747212 C99.7175799,35.1747212 99.430461,35.1234424 99.1730074,35.0208848 C98.9155539,34.918539 98.6960297,34.7746617 98.5140112,34.5896766 C98.3322045,34.4046914 98.1910818,34.1830483 98.0910669,33.9241115 C97.9908401,33.6655985 97.9408327,33.3808104 97.9408327,33.0703829 C97.9408327,32.7599554 97.9944424,32.4755911 98.1016617,32.2166543 C98.208881,31.9579294 98.3597509,31.7358625 98.5538476,31.5498178 C98.7479442,31.3637732 98.9803941,31.219684 99.251197,31.1171264 C99.522,31.0145688 99.8207732,30.9635019 100.147941,30.9635019 C100.470658,30.9635019 100.749089,31.0103309 100.983022,31.1042007 C101.216955,31.1980706 101.424825,31.325632 101.606844,31.4866729 L101.413595,31.7424312 C101.399398,31.7617138 101.383082,31.7773941 101.364647,31.789684 C101.346212,31.8021859 101.319725,31.8085428 101.284974,31.8085428 C101.258487,31.8085428 101.230093,31.7994312 101.200639,31.7812082 C101.170974,31.7629851 101.135799,31.7405242 101.094903,31.7138253 C101.054007,31.6867026 101.006119,31.6580967 100.950814,31.6273717 C100.895509,31.5968587 100.830245,31.5680409 100.754599,31.541342 C100.679164,31.5142193 100.591227,31.4917584 100.491,31.4737472 C100.390985,31.4553123 100.275502,31.4464126 100.144762,31.4464126 C99.9097695,31.4464126 99.6944833,31.4841301 99.4993271,31.559777 C99.304171,31.6356357 99.1363494,31.7432788 98.9954387,31.8831301 C98.8541041,32.0231933 98.744342,32.1935576 98.6657286,32.3950706 C98.5871152,32.5961599 98.5477026,32.8214052 98.5477026,33.0703829 C98.5477026,33.3274126 98.5871152,33.5562602 98.6657286,33.7575613 C98.744342,33.9586506 98.8515613,34.128803 98.9875985,34.2678067 C99.1236357,34.4065985 99.2844647,34.5125465 99.4705093,34.5854387 C99.656342,34.6583309 99.8565836,34.6945651 100.071234,34.6945651 C100.201762,34.6945651 100.319364,34.6875725 100.423617,34.6729517 C100.52787,34.6587546 100.624494,34.6360818 100.713279,34.6053569 C100.802063,34.5748439 100.884914,34.5362788 100.961621,34.489026 C101.038327,34.442197 101.115245,34.3860446 101.193011,34.3209926 C101.227762,34.2921747 101.261454,34.2777658 101.294086,34.2777658" id="Fill-28" fill="#FFFFFF" sketch:type="MSShapeGroup"></path>
            <path d="M103.38677,33.5992751 L105.02642,33.5992751 L104.337123,31.9236022 C104.291989,31.8199851 104.248126,31.6907286 104.205112,31.5354089 C104.182651,31.6140223 104.160613,31.6862788 104.139424,31.7523903 C104.11781,31.8187138 104.096833,31.8765613 104.076491,31.9263569 L103.38677,33.5992751 L103.38677,33.5992751 Z M106.264952,35.1287398 L105.805138,35.1287398 C105.751952,35.1287398 105.709149,35.1162379 105.676517,35.0914461 C105.643673,35.0664424 105.619305,35.0348699 105.602777,34.9963048 L105.192123,34.0018773 L103.221279,34.0018773 L102.810413,34.9963048 C102.796216,35.0308439 102.771636,35.0615688 102.736885,35.0884796 C102.702134,35.1153903 102.659119,35.1287398 102.608264,35.1287398 L102.14845,35.1287398 L103.904643,31.0094833 L104.508758,31.0094833 L106.264952,35.1287398 L106.264952,35.1287398 Z" id="Fill-29" fill="#FFFFFF" sketch:type="MSShapeGroup"></path>
            <path d="M107.650963,33.0044833 L108.273301,33.0044833 C108.446844,33.0044833 108.599621,32.984777 108.731632,32.9455762 C108.863219,32.9061636 108.973617,32.8504349 109.062401,32.7786022 C109.151398,32.7069814 109.218357,32.6211636 109.263279,32.5215725 C109.308201,32.4217695 109.330874,32.3115836 109.330874,32.190803 C109.330874,31.9456394 109.24442,31.7606543 109.071725,31.6360595 C108.89903,31.5114647 108.642,31.4491673 108.300848,31.4491673 L107.650963,31.4491673 L107.650963,33.0044833 L107.650963,33.0044833 Z M107.650963,33.4098401 L107.650963,35.1287398 L107.059561,35.1287398 L107.059561,31.0094833 L108.300848,31.0094833 C108.578643,31.0094833 108.818721,31.0357584 109.021082,31.0885204 C109.223442,31.1410706 109.390628,31.2173532 109.522216,31.3169442 C109.654227,31.4167472 109.751699,31.5371041 109.815056,31.677803 C109.878413,31.8187138 109.909985,31.9763643 109.909985,32.1507546 C109.909985,32.2961152 109.885617,32.4323643 109.836669,32.5588662 C109.787297,32.685368 109.716312,32.7989442 109.623502,32.8995948 C109.53048,33.0000335 109.416903,33.0858513 109.283197,33.1568364 C109.149279,33.2276097 108.997773,33.2814312 108.828045,33.3176654 C108.901572,33.3579257 108.967048,33.4164089 109.02426,33.4931152 L110.305383,35.1287398 L109.778186,35.1287398 C109.669907,35.1287398 109.590234,35.0893271 109.539167,35.0109257 L108.398955,33.5390967 C108.364204,33.4931152 108.326487,33.4600595 108.285591,33.4397175 C108.244695,33.4197993 108.183245,33.4098401 108.101665,33.4098401 L107.650963,33.4098401 L107.650963,33.4098401 Z" id="Fill-30" fill="#FFFFFF" sketch:type="MSShapeGroup"></path>
            <path d="M113.817981,31.0094833 L113.817981,31.4635762 L111.709193,31.4635762 L111.709193,32.832 L113.416439,32.832 L113.416439,33.2689294 L111.709193,33.2689294 L111.709193,34.6746468 L113.817981,34.6746468 L113.817981,35.1287398 L111.111435,35.1287398 L111.111435,31.0094833 L113.817981,31.0094833" id="Fill-31" fill="#FFFFFF" sketch:type="MSShapeGroup"></path>
            <path d="M116.444855,31.0094833 L117.039647,31.0094833 L117.039647,35.1287398 L116.444855,35.1287398 L116.444855,31.0094833 Z" id="Fill-32" fill="#FFFFFF" sketch:type="MSShapeGroup"></path>
            <path d="M118.775498,31.0279182 C118.801349,31.0404201 118.830379,31.0660595 118.863011,31.1042007 L121.407033,34.2088996 C121.400888,34.1591041 121.396862,34.1107918 121.394955,34.0637509 C121.392625,34.01671 121.391777,33.9713643 121.391777,33.92729 L121.391777,31.0094833 L121.912829,31.0094833 L121.912829,35.1287398 L121.612361,35.1287398 C121.56532,35.1287398 121.526119,35.1211115 121.494335,35.1056431 C121.462762,35.0905985 121.431613,35.0645353 121.400888,35.0280892 L118.860045,31.9263569 C118.864071,31.9742454 118.867037,32.0210743 118.869156,32.0672677 C118.871275,32.1132491 118.872335,32.1554164 118.872335,32.1935576 L118.872335,35.1287398 L118.351283,35.1287398 L118.351283,31.0094833 L118.657684,31.0094833 C118.71087,31.0094833 118.750071,31.0156283 118.775498,31.0279182" id="Fill-33" fill="#FFFFFF" sketch:type="MSShapeGroup"></path>
            <path d="M123.602063,31.0279182 C123.627703,31.0404201 123.656944,31.0660595 123.689364,31.1042007 L126.233599,34.2088996 C126.227242,34.1591041 126.223216,34.1107918 126.221309,34.0637509 C126.21919,34.01671 126.218342,33.9713643 126.218342,33.92729 L126.218342,31.0094833 L126.739394,31.0094833 L126.739394,35.1287398 L126.438926,35.1287398 C126.391885,35.1287398 126.352472,35.1211115 126.320688,35.1056431 C126.289327,35.0905985 126.257967,35.0645353 126.227242,35.0280892 L123.686398,31.9263569 C123.690636,31.9742454 123.693602,32.0210743 123.695509,32.0672677 C123.697628,32.1132491 123.698688,32.1554164 123.698688,32.1935576 L123.698688,35.1287398 L123.177636,35.1287398 L123.177636,31.0094833 L123.484249,31.0094833 C123.537223,31.0094833 123.576636,31.0156283 123.602063,31.0279182" id="Fill-34" fill="#FFFFFF" sketch:type="MSShapeGroup"></path>
            <path d="M131.489253,33.0703829 C131.489253,32.8173792 131.452171,32.5904387 131.378855,32.3891375 C131.305327,32.1880483 131.201074,32.0178959 131.066097,31.8788922 C130.931119,31.7401004 130.767747,31.6333048 130.575558,31.5582937 C130.38358,31.4837063 130.168929,31.4464126 129.93203,31.4464126 C129.697037,31.4464126 129.483446,31.4837063 129.291468,31.5582937 C129.099279,31.6333048 128.935271,31.7401004 128.799446,31.8788922 C128.663621,32.0178959 128.558944,32.1880483 128.485204,32.3891375 C128.411677,32.5904387 128.375019,32.8173792 128.375019,33.0703829 C128.375019,33.3233866 128.411677,33.5501152 128.485204,33.7503569 C128.558944,33.9505985 128.663621,34.1201152 128.799446,34.2593309 C128.935271,34.3979108 129.099279,34.5044944 129.291468,34.5782342 C129.483446,34.6521859 129.697037,34.6890558 129.93203,34.6890558 C130.168929,34.6890558 130.38358,34.6521859 130.575558,34.5782342 C130.767747,34.5044944 130.931119,34.3979108 131.066097,34.2593309 C131.201074,34.1201152 131.305327,33.9505985 131.378855,33.7503569 C131.452171,33.5501152 131.489253,33.3233866 131.489253,33.0703829 L131.489253,33.0703829 Z M132.098877,33.0703829 C132.098877,33.3791152 132.046963,33.6622082 131.94271,33.9198736 C131.838457,34.177539 131.691401,34.3996059 131.501543,34.5854387 C131.31126,34.7712714 131.082836,34.9153606 130.816271,35.0179182 C130.549706,35.1204758 130.254959,35.1719665 129.93203,35.1719665 C129.6091,35.1719665 129.314777,35.1204758 129.049271,35.0179182 C128.783554,34.9153606 128.555766,34.7712714 128.365695,34.5854387 C128.175625,34.3996059 128.028569,34.177539 127.924528,33.9198736 C127.820063,33.6622082 127.767937,33.3791152 127.767937,33.0703829 C127.767937,32.7620743 127.820063,32.4787695 127.924528,32.2211041 C128.028569,31.9632268 128.175625,31.740948 128.365695,31.5540558 C128.555766,31.3673755 128.783554,31.2220149 129.049271,31.1186097 C129.314777,31.0152045 129.6091,30.9635019 129.93203,30.9635019 C130.254959,30.9635019 130.549706,31.0152045 130.816271,31.1186097 C131.082836,31.2220149 131.31126,31.3673755 131.501543,31.5540558 C131.691401,31.740948 131.838457,31.9632268 131.94271,32.2211041 C132.046963,32.4787695 132.098877,32.7620743 132.098877,33.0703829 L132.098877,33.0703829 Z" id="Fill-35" fill="#FFFFFF" sketch:type="MSShapeGroup"></path>
            <path d="M132.420323,31.0094833 L132.895394,31.0094833 C132.94858,31.0094833 132.991383,31.0219851 133.024227,31.046777 C133.056859,31.0717807 133.081439,31.1033532 133.097755,31.1414944 L134.339253,34.0478587 C134.367647,34.1131227 134.39371,34.1838959 134.41723,34.2606022 C134.440539,34.3370967 134.463848,34.4167695 134.486097,34.499197 C134.504532,34.4167695 134.524662,34.3370967 134.545851,34.2606022 C134.567465,34.1838959 134.592468,34.1131227 134.621074,34.0478587 L135.856216,31.1414944 C135.870625,31.1090743 135.895204,31.0789851 135.929955,31.0510149 C135.964706,31.0232565 136.007509,31.0094833 136.058788,31.0094833 L136.536825,31.0094833 L134.746729,35.1287398 L134.210208,35.1287398 L132.420323,31.0094833" id="Fill-36" fill="#FFFFFF" sketch:type="MSShapeGroup"></path>
            <path d="M137.659662,33.5992751 L139.299524,33.5992751 L138.610015,31.9236022 C138.564881,31.8199851 138.521019,31.6907286 138.478004,31.5354089 C138.455543,31.6140223 138.433717,31.6862788 138.412316,31.7523903 C138.390703,31.8187138 138.369725,31.8765613 138.349383,31.9263569 L137.659662,33.5992751 L137.659662,33.5992751 Z M140.537844,35.1287398 L140.07803,35.1287398 C140.025056,35.1287398 139.982041,35.1162379 139.949409,35.0914461 C139.916565,35.0664424 139.892197,35.0348699 139.875881,34.9963048 L139.465015,34.0018773 L137.494171,34.0018773 L137.083305,34.9963048 C137.069108,35.0308439 137.044528,35.0615688 137.009777,35.0884796 C136.975026,35.1153903 136.932011,35.1287398 136.881156,35.1287398 L136.421342,35.1287398 L138.177747,31.0094833 L138.781651,31.0094833 L140.537844,35.1287398 L140.537844,35.1287398 Z" id="Fill-37" fill="#FFFFFF" sketch:type="MSShapeGroup"></path>
            <path d="M143.793625,31.0094833 L143.793625,31.4779851 L142.374346,31.4779851 L142.374346,35.1287398 L141.779766,35.1287398 L141.779766,31.4779851 L140.354554,31.4779851 L140.354554,31.0094833 L143.793625,31.0094833" id="Fill-38" fill="#FFFFFF" sketch:type="MSShapeGroup"></path>
            <path d="M144.647353,31.0094833 L145.242145,31.0094833 L145.242145,35.1287398 L144.647353,35.1287398 L144.647353,31.0094833 Z" id="Fill-39" fill="#FFFFFF" sketch:type="MSShapeGroup"></path>
            <path d="M150.03629,33.0703829 C150.03629,32.8173792 149.99942,32.5904387 149.926104,32.3891375 C149.852576,32.1880483 149.748112,32.0178959 149.613346,31.8788922 C149.478368,31.7401004 149.314996,31.6333048 149.122807,31.5582937 C148.930829,31.4837063 148.716178,31.4464126 148.479067,31.4464126 C148.244286,31.4464126 148.030695,31.4837063 147.838717,31.5582937 C147.646528,31.6333048 147.48252,31.7401004 147.346695,31.8788922 C147.210658,32.0178959 147.105981,32.1880483 147.032454,32.3891375 C146.958926,32.5904387 146.922056,32.8173792 146.922056,33.0703829 C146.922056,33.3233866 146.958926,33.5501152 147.032454,33.7503569 C147.105981,33.9505985 147.210658,34.1201152 147.346695,34.2593309 C147.48252,34.3979108 147.646528,34.5044944 147.838717,34.5782342 C148.030695,34.6521859 148.244286,34.6890558 148.479067,34.6890558 C148.716178,34.6890558 148.930829,34.6521859 149.122807,34.5782342 C149.314996,34.5044944 149.478368,34.3979108 149.613346,34.2593309 C149.748112,34.1201152 149.852576,33.9505985 149.926104,33.7503569 C149.99942,33.5501152 150.03629,33.3233866 150.03629,33.0703829 L150.03629,33.0703829 Z M150.646126,33.0703829 C150.646126,33.3791152 150.594212,33.6622082 150.489959,33.9198736 C150.385706,34.177539 150.238651,34.3996059 150.04858,34.5854387 C149.858509,34.7712714 149.630086,34.9153606 149.36352,35.0179182 C149.096955,35.1204758 148.801996,35.1719665 148.479067,35.1719665 C148.156138,35.1719665 147.862026,35.1204758 147.59652,35.0179182 C147.330803,34.9153606 147.103015,34.7712714 146.912944,34.5854387 C146.722874,34.3996059 146.575606,34.177539 146.471565,33.9198736 C146.367312,33.6622082 146.315186,33.3791152 146.315186,33.0703829 C146.315186,32.7620743 146.367312,32.4787695 146.471565,32.2211041 C146.575606,31.9632268 146.722874,31.740948 146.912944,31.5540558 C147.103015,31.3673755 147.330803,31.2220149 147.59652,31.1186097 C147.862026,31.0152045 148.156138,30.9635019 148.479067,30.9635019 C148.801996,30.9635019 149.096955,31.0152045 149.36352,31.1186097 C149.630086,31.2220149 149.858509,31.3673755 150.04858,31.5540558 C150.238651,31.740948 150.385706,31.9632268 150.489959,32.2211041 C150.594212,32.4787695 150.646126,32.7620743 150.646126,33.0703829 L150.646126,33.0703829 Z" id="Fill-40" fill="#FFFFFF" sketch:type="MSShapeGroup"></path>
            <path d="M152.081086,31.0279182 C152.106725,31.0404201 152.135755,31.0660595 152.168387,31.1042007 L154.712621,34.2088996 C154.706264,34.1591041 154.702238,34.1107918 154.700331,34.0637509 C154.698212,34.01671 154.697364,33.9713643 154.697364,33.92729 L154.697364,31.0094833 L155.218416,31.0094833 L155.218416,35.1287398 L154.917948,35.1287398 C154.870907,35.1287398 154.831494,35.1211115 154.79971,35.1056431 C154.768349,35.0905985 154.736989,35.0645353 154.706264,35.0280892 L152.16542,31.9263569 C152.169446,31.9742454 152.172625,32.0210743 152.174532,32.0672677 C152.176651,32.1132491 152.17771,32.1554164 152.17771,32.1935576 L152.17771,35.1287398 L151.656658,35.1287398 L151.656658,31.0094833 L151.963271,31.0094833 C152.016245,31.0094833 152.055658,31.0156283 152.081086,31.0279182" id="Fill-41" fill="#FFFFFF" sketch:type="MSShapeGroup"></path>
            <path d="M158.73377,31.6534349 C158.715546,31.6820409 158.696052,31.7036543 158.675498,31.7180632 C158.655368,31.7322602 158.628669,31.7394647 158.596037,31.7394647 C158.561286,31.7394647 158.520814,31.7233606 158.474833,31.6907286 C158.428851,31.6580967 158.370792,31.6222862 158.30023,31.5828736 C158.229669,31.5436729 158.144699,31.5076506 158.045743,31.4750186 C157.946576,31.4423866 157.826643,31.4262825 157.685732,31.4262825 C157.552874,31.4262825 157.435271,31.4430223 157.333138,31.4765019 C157.231004,31.5099814 157.14561,31.555539 157.077167,31.6129628 C157.008725,31.6705985 156.957022,31.7381933 156.922271,31.8157472 C156.88752,31.8933011 156.870357,31.9772119 156.870357,32.0672677 C156.870357,32.1821152 156.900446,32.2776803 156.960836,32.3533271 C157.021015,32.428974 157.100688,32.4936022 157.199855,32.5472119 C157.29881,32.6010335 157.411327,32.6474387 157.536981,32.6866394 C157.662636,32.726052 157.791468,32.7667361 157.923056,32.8089033 C158.055067,32.8510706 158.183688,32.8983234 158.309554,32.9510855 C158.435208,33.0040595 158.547301,33.0703829 158.64668,33.1509033 C158.745848,33.2314238 158.825309,33.3301673 158.885699,33.4471338 C158.945877,33.5638885 158.975967,33.7077658 158.975967,33.8781301 C158.975967,34.0584535 158.943546,34.2275465 158.878071,34.3856208 C158.812595,34.5436952 158.71703,34.6812156 158.591375,34.7981822 C158.465721,34.9149368 158.311461,35.0068996 158.128595,35.0740706 C157.945729,35.1412416 157.737647,35.1747212 157.504773,35.1747212 C157.220621,35.1747212 156.961684,35.1264089 156.727963,35.0295725 C156.493818,34.9327361 156.294,34.8019963 156.128721,34.6371413 L156.300357,34.3726952 C156.316461,34.3517175 156.336591,34.3339182 156.360112,34.3195093 C156.38342,34.3053123 156.409483,34.2978959 156.438089,34.2978959 C156.481104,34.2978959 156.530052,34.3195093 156.585145,34.3625242 C156.64045,34.4057509 156.709316,34.4532156 156.792167,34.5049182 C156.874807,34.5566208 156.975033,34.6040855 157.092424,34.6471004 C157.210026,34.6903271 157.353691,34.7119405 157.523208,34.7119405 C157.664331,34.7119405 157.789985,34.6937175 157.900171,34.6572714 C158.010569,34.6208253 158.104015,34.5695465 158.180721,34.5036468 C158.257216,34.4373234 158.315911,34.3582862 158.357019,34.2663234 C158.397703,34.1743606 158.418257,34.071803 158.418257,33.9586506 C158.418257,33.8342677 158.387955,33.7321338 158.327777,33.6526729 C158.267387,33.573 158.188349,33.5064647 158.090242,33.4526431 C157.992134,33.3992454 157.880253,33.3536877 157.754599,33.3163941 C157.628944,33.2788885 157.500112,33.2405353 157.368312,33.2013346 C157.236725,33.1619219 157.107892,33.1163643 156.982238,33.0646617 C156.856584,33.0129591 156.744703,32.946 156.646383,32.8633606 C156.548487,32.781145 156.469238,32.6779517 156.409059,32.5546283 C156.348881,32.430881 156.31858,32.2781041 156.31858,32.0960855 C156.31858,31.9503011 156.348881,31.8096022 156.409059,31.6733532 C156.469238,31.5375279 156.556751,31.4167472 156.671175,31.311223 C156.785387,31.2059108 156.927145,31.1215762 157.095602,31.0582193 C157.264271,30.9948625 157.457732,30.9635019 157.676409,30.9635019 C157.921572,30.9635019 158.145546,30.999948 158.347695,31.0726283 C158.550056,31.1455204 158.726777,31.2510446 158.878071,31.3889888 L158.73377,31.6534349" id="Fill-42" fill="#FFFFFF" sketch:type="MSShapeGroup"></path>
            <path d="M160.017223,31.7297175 L160.138851,31.7297175 C160.164067,31.7297175 160.189918,31.7284461 160.215346,31.7263271 C160.240985,31.7244201 160.26387,31.7191227 160.284848,31.7104349 C160.30519,31.7019591 160.321929,31.6892454 160.334643,31.6720818 C160.347357,31.6551301 160.353926,31.6318216 160.353926,31.6021561 C160.353926,31.5722788 160.347357,31.5485465 160.334643,31.5318067 C160.321929,31.5146431 160.30519,31.5019294 160.284848,31.4932416 C160.26387,31.4847658 160.240985,31.4796803 160.215346,31.4786208 C160.189918,31.4769257 160.164067,31.4760781 160.138851,31.4760781 L160.017223,31.4760781 L160.017223,31.7297175 L160.017223,31.7297175 Z M159.851309,31.335803 L160.200513,31.335803 C160.309639,31.335803 160.390372,31.3591115 160.442286,31.4061524 C160.493777,31.4527695 160.520052,31.5203643 160.520052,31.6083011 C160.520052,31.687974 160.499498,31.7473048 160.458602,31.7873532 C160.41813,31.8269777 160.366639,31.8502862 160.304766,31.8572788 L160.539123,32.2408104 L160.36452,32.2408104 L160.138851,31.8704164 L160.017223,31.8704164 L160.017223,32.2408104 L159.851309,32.2408104 L159.851309,31.335803 L159.851309,31.335803 Z M159.504011,31.7934981 C159.504011,31.8831301 159.521175,31.9672528 159.555078,32.0471375 C159.589617,32.1263866 159.63581,32.1954647 159.694717,32.2543717 C159.753625,32.3132788 159.823126,32.3598959 159.902375,32.3937993 C159.981836,32.4281264 160.066383,32.4450781 160.156015,32.4450781 C160.245223,32.4450781 160.32977,32.4281264 160.409019,32.3937993 C160.48848,32.3598959 160.557981,32.3132788 160.616888,32.2543717 C160.675796,32.1954647 160.721989,32.1263866 160.756316,32.0471375 C160.790219,31.9672528 160.807383,31.8831301 160.807383,31.7934981 C160.807383,31.70429 160.790219,31.6197435 160.756316,31.5402825 C160.721989,31.4606097 160.675796,31.3915316 160.616888,31.3326245 C160.557981,31.2737175 160.48848,31.2271004 160.409019,31.1929851 C160.32977,31.1590818 160.245223,31.1419182 160.156015,31.1419182 C160.066383,31.1419182 159.981836,31.1590818 159.902375,31.1929851 C159.823126,31.2271004 159.753625,31.2737175 159.694717,31.3326245 C159.63581,31.3915316 159.589617,31.4606097 159.555078,31.5402825 C159.521175,31.6197435 159.504011,31.70429 159.504011,31.7934981 L159.504011,31.7934981 Z M159.363736,31.7934981 C159.363736,31.6843717 159.384714,31.5816022 159.426245,31.4858253 C159.468413,31.3902602 159.525413,31.3063494 159.596822,31.2347286 C159.668442,31.1628959 159.752353,31.1058959 159.847918,31.0641524 C159.943695,31.0226208 160.046465,31.0012193 160.156015,31.0012193 C160.265141,31.0012193 160.367911,31.0226208 160.463476,31.0641524 C160.559253,31.1058959 160.643164,31.1628959 160.714572,31.2347286 C160.786193,31.3063494 160.842981,31.3902602 160.885149,31.4858253 C160.926892,31.5816022 160.947658,31.6843717 160.947658,31.7934981 C160.947658,31.9030483 160.926892,32.0053941 160.885149,32.1013829 C160.842981,32.1971599 160.786193,32.2810706 160.714572,32.3524796 C160.643164,32.4241004 160.559253,32.4808885 160.463476,32.522632 C160.367911,32.5647993 160.265141,32.5855651 160.156015,32.5855651 C160.046465,32.5855651 159.943695,32.5647993 159.847918,32.522632 C159.752353,32.4808885 159.668442,32.4241004 159.596822,32.3524796 C159.525413,32.2810706 159.468413,32.1971599 159.426245,32.1013829 C159.384714,32.0053941 159.363736,31.9030483 159.363736,31.7934981 L159.363736,31.7934981 Z" id="Fill-43" fill="#FFFFFF" sketch:type="MSShapeGroup"></path>
        </g>
    </g>
</svg>